<mxfile host="app.diagrams.net" modified="2023-03-30T06:19:49.013Z" agent="Mozilla/5.0 (Windows NT 10.0; Win64; x64) AppleWebKit/537.36 (KHTML, like Gecko) Chrome/111.0.0.0 Safari/537.36" version="21.1.2" etag="wdgeL-RG8UnuvFLgOUej" type="github">
  <diagram name="Страница 1" id="YXpl0CmO5_7hO2Ogk8iv">
    <mxGraphModel>
      <root>
        <mxCell id="0" />
        <mxCell id="1" parent="0" />
      </root>
    </mxGraphModel>
  </diagram>
</mxfile>
